<svg xmlns="http://www.w3.org/2000/svg" viewBox="-1179.966 1867.098 53.156 60.936"><defs><style>.a{fill:#f83d3d;}</style></defs><g transform="translate(-1179.966 1867.098)"><g transform="translate(0)"><path class="a" d="M55.9,7.794A1.916,1.916,0,0,0,54.5,7.2a5.243,5.243,0,0,0-1.689.654c-.859.435-1.774.919-2.733,1.459a19.792,19.792,0,0,1-3.417,1.458,11.691,11.691,0,0,1-3.647.654,6.021,6.021,0,0,1-2.732-.591,55.489,55.489,0,0,0-6.8-2.733,20.765,20.765,0,0,0-6.21-.9q-5.739,0-13.07,3.728c-1.008.5-1.731.892-2.2,1.178l-.464-3.4A4.962,4.962,0,1,0,5.7,9.19l6.712,49.218a2.924,2.924,0,0,0,2.893,2.528,3.861,3.861,0,0,0,.4-.025,2.924,2.924,0,0,0,2.5-3.292l-2.7-19.781Q22.853,34.2,28.2,34.186a14.465,14.465,0,0,1,4.424.682,19.23,19.23,0,0,1,3.586,1.487,20.644,20.644,0,0,0,3.368,1.49,11.487,11.487,0,0,0,3.834.684q4.781,0,11.455-3.6a4.57,4.57,0,0,0,1.227-.854,1.691,1.691,0,0,0,.388-1.194V9.191A1.917,1.917,0,0,0,55.9,7.794Z" transform="translate(-3.327 0)"/></g></g></svg>